<svg xmlns="http://www.w3.org/2000/svg" viewBox="0 0 256 256" role="img" aria-label="NexPad icon source">
  <defs>
    <linearGradient id="bg" x1="0" y1="0" x2="0" y2="1">
      <stop offset="0%" stop-color="#0b1220"/>
      <stop offset="100%" stop-color="#12587a"/>
    </linearGradient>
    <linearGradient id="shine" x1="0" y1="0" x2="0" y2="1">
      <stop offset="0%" stop-color="#ffffff" stop-opacity="0.55"/>
      <stop offset="100%" stop-color="#ffffff" stop-opacity="0"/>
    </linearGradient>
  </defs>
  <rect x="20" y="20" width="216" height="216" rx="54" fill="url(#bg)" stroke="#9feaff" stroke-opacity="0.45" stroke-width="7"/>
  <path d="M20 20h216v100c-22-10-52-16-108-16s-86 6-108 16z" fill="url(#shine)" opacity="0.7"/>
  <path d="M79 101h19v-19h22v19h19v22h-19v19H98v-19H79z" fill="#58ebff"/>
  <circle cx="89" cy="112" r="8" fill="#d6fbff"/>
  <circle cx="177" cy="128" r="26" fill="none" stroke="#ff8a5c" stroke-width="14"/>
  <circle cx="177" cy="128" r="10" fill="#ffd6c6"/>
  <path d="M84 184V72l88 112V84" fill="none" stroke="#ffffff" stroke-width="22" stroke-linecap="round" stroke-linejoin="round" opacity="0.97"/>
  <path d="M49 76c28-20 58-27 122-27 25 0 44 2 63 7" fill="none" stroke="#22ccff" stroke-width="6" stroke-linecap="round" opacity="0.65"/>
</svg>